{"glyphs":{":":{"x_min":0,"x_max":276,"ha":276,"o":""},"$":{"x_min":0,"x_max":507,"ha":507,"o":"m 204 -6 q 157 0 117 19 q 77 38 48 67 l 75 109 q 82 119 90 125 q 99 130 112 130 q 120 130 128 125 q 137 120 149 113 q 160 106 176 100 q 191 93 213 89 l 225 222 q 196 229 168 239 q 140 249 118 267 q 96 284 82 311 q 68 338 68 378 q 68 408 79 436 q 90 463 113 486 q 136 509 171 524 q 206 539 253 542 l 262 643 l 332 643 l 322 540 q 362 534 395 518 q 428 503 451 480 l 422 434 q 417 426 411 421 q 405 416 395 416 q 388 416 380 419 q 373 423 364 429 q 354 434 342 440 q 331 445 314 449 l 303 316 q 331 309 359 298 q 387 288 409 271 q 432 254 446 229 q 460 204 460 166 q 460 132 447 102 q 433 72 409 49 q 384 25 350 10 q 315 -5 274 -8 l 266 -106 l 195 -106 z m 352 148 q 352 171 335 183 q 319 195 292 204 l 282 87 q 321 92 336 108 q 352 125 352 148 z m 183 389 q 183 369 197 357 q 211 345 235 336 l 245 450 q 227 447 215 442 q 203 436 196 428 q 188 420 186 410 q 183 400 183 389 z"},"?":{"x_min":0,"x_max":463,"ha":463,"o":"m 48 621 q 65 635 84 648 q 104 661 126 670 q 149 680 175 685 q 201 690 231 690 q 273 690 308 679 q 342 667 366 646 q 391 625 404 595 q 417 565 417 528 q 417 492 407 466 q 397 440 381 421 q 366 401 347 387 q 329 373 312 360 q 296 348 284 336 q 271 324 269 309 l 257 241 l 173 241 l 164 318 q 161 340 170 357 q 179 374 195 387 q 210 401 229 414 q 248 427 264 442 q 280 457 291 476 q 302 495 302 521 q 302 553 280 572 q 257 591 221 591 q 194 591 176 585 q 158 579 145 572 q 132 565 124 560 q 115 554 107 554 q 90 554 81 569 z m 135 67 q 135 82 140 96 q 146 109 156 119 q 166 129 180 135 q 193 141 209 141 q 225 141 238 135 q 252 129 262 119 q 272 109 278 96 q 284 82 284 67 q 284 51 278 38 q 272 24 262 14 q 252 4 238 -1 q 225 -7 209 -7 q 193 -7 180 -1 q 166 4 156 14 q 146 24 140 38 q 135 51 135 67 z"},"<":{"x_min":0,"x_max":498,"ha":498,"o":"m 40 342 l 416 539 l 416 451 q 416 441 411 433 q 406 424 394 418 l 233 335 q 211 324 183 317 q 210 311 233 300 l 394 217 q 406 211 411 203 q 416 195 416 185 l 416 96 l 40 293 z"},"'":{"x_min":0,"x_max":233,"ha":233,"o":"m 170 683 l 170 547 l 159 474 q 156 452 147 440 q 138 428 116 428 q 98 428 88 440 q 78 452 75 474 l 63 547 l 63 683 z"},"=":{"x_min":0,"x_max":498,"ha":498,"o":"m 39 278 l 459 278 l 459 187 l 39 187 z m 39 446 l 459 446 l 459 355 l 39 355 z"},"a":{"x_min":0,"x_max":494,"ha":494,"o":"m 385 0 q 368 0 358 5 q 349 10 344 26 l 333 58 q 314 42 297 30 q 280 18 262 9 q 244 1 223 -3 q 202 -7 177 -7 q 146 -7 120 1 q 94 10 75 26 q 56 43 46 68 q 36 92 36 125 q 36 151 49 178 q 63 205 96 227 q 129 249 184 263 q 239 277 321 279 l 321 305 q 321 352 301 374 q 282 396 245 396 q 218 396 200 390 q 182 383 168 376 q 155 368 143 362 q 131 355 117 355 q 104 355 95 362 q 86 369 81 378 l 58 417 q 100 456 151 475 q 202 494 261 494 q 303 494 337 480 q 371 466 394 441 q 417 416 430 381 q 442 347 442 305 l 442 0 z m 215 77 q 249 77 273 89 q 297 101 321 126 l 321 204 q 272 202 240 196 q 208 190 189 180 q 170 171 162 158 q 154 146 154 131 q 154 102 171 89 q 187 77 215 77 z"},"L":{"x_min":0,"x_max":423,"ha":423,"o":"m 181 105 l 406 105 l 406 0 l 53 0 l 53 648 l 181 648 z"},"3":{"x_min":0,"x_max":507,"ha":507,"o":""},";":{"x_min":0,"x_max":276,"ha":276,"o":""},"J":{"x_min":0,"x_max":331,"ha":331,"o":"m 284 232 q 284 178 273 134 q 261 89 238 58 q 214 27 178 10 q 142 -7 94 -7 q 72 -7 51 -4 q 30 -1 7 5 l 14 81 q 15 91 21 97 q 28 104 41 104 q 48 104 57 101 q 66 98 81 98 q 100 98 114 105 q 128 112 138 128 q 147 144 152 168 q 156 193 156 229 l 156 648 l 284 648 z"},"V":{"x_min":0,"x_max":591,"ha":591,"o":"m 0 648 l 104 648 q 120 648 131 641 q 141 633 146 620 l 269 237 q 276 217 283 194 q 291 170 297 145 q 302 171 309 195 q 315 218 323 238 l 445 620 q 449 631 460 640 q 471 648 487 648 l 591 648 l 354 0 l 238 0 z"},"\"":{"x_min":0,"x_max":438,"ha":438,"o":""},"7":{"x_min":0,"x_max":507,"ha":507,"o":""},"S":{"x_min":0,"x_max":473,"ha":473,"o":"m 401 526 q 396 517 389 512 q 383 508 373 508 q 364 508 353 515 q 342 522 328 530 q 313 538 294 545 q 275 552 250 552 q 207 552 184 530 q 162 509 162 474 q 162 452 174 438 q 186 423 206 413 q 226 402 251 394 q 276 386 302 376 q 329 367 354 354 q 379 341 399 321 q 418 302 430 273 q 442 245 442 205 q 442 161 428 122 q 414 83 386 55 q 358 26 318 10 q 277 -7 226 -7 q 196 -7 167 -1 q 138 5 111 17 q 84 28 61 43 q 37 59 19 79 l 57 140 q 61 147 69 151 q 76 156 85 156 q 97 156 109 147 q 122 138 138 127 q 155 116 177 107 q 199 98 229 98 q 273 98 297 120 q 322 143 322 187 q 322 211 310 227 q 298 243 278 253 q 259 264 234 271 q 208 279 182 288 q 156 296 131 309 q 106 321 86 342 q 67 362 55 393 q 43 423 43 468 q 43 503 57 537 q 70 571 97 598 q 123 624 161 640 q 200 656 249 656 q 305 656 352 638 q 400 620 434 587 z"},"}":{"x_min":0,"x_max":344,"ha":344,"o":"m 247 191 q 247 169 250 148 q 252 126 256 104 q 260 83 263 60 q 266 38 266 16 q 266 -21 256 -51 q 245 -81 223 -103 q 201 -124 167 -136 q 134 -147 88 -147 l 63 -147 l 63 -93 q 63 -86 66 -81 q 69 -76 73 -73 q 77 -70 81 -69 q 86 -67 89 -67 l 92 -67 q 125 -67 141 -48 q 158 -28 158 7 q 158 33 155 57 q 153 81 150 103 q 146 125 144 146 q 142 168 142 190 q 142 208 146 224 q 151 240 161 253 q 170 267 184 276 q 197 286 215 292 q 197 296 184 306 q 170 316 161 330 q 151 343 146 359 q 142 375 142 393 q 142 415 144 437 q 146 458 150 480 q 153 502 155 526 q 158 549 158 575 q 158 610 141 630 q 125 650 92 650 l 89 650 q 86 650 81 652 q 77 653 73 656 q 69 659 66 664 q 63 668 63 675 l 63 730 l 88 730 q 134 730 167 718 q 201 707 223 685 q 245 664 256 634 q 266 604 266 568 q 266 545 263 523 q 260 500 256 479 q 252 457 250 435 q 247 413 247 391 q 247 363 260 345 q 272 327 302 327 l 302 255 q 272 255 260 238 q 247 220 247 191 z"},"Z":{"x_min":0,"x_max":478,"ha":478,"o":"m 463 648 l 463 601 q 463 580 451 562 l 172 102 l 456 102 l 456 0 l 17 0 l 17 50 q 17 69 28 85 l 307 546 l 38 546 l 38 648 z"},"x":{"x_min":0,"x_max":459,"ha":459,"o":"m 148 250 l 14 485 l 133 485 q 146 485 152 481 q 158 478 163 469 l 240 321 q 242 327 245 333 q 248 339 252 345 l 305 467 q 315 485 332 485 l 446 485 l 311 256 l 452 0 l 333 0 q 319 0 311 7 q 303 14 298 22 l 221 176 q 219 171 217 166 q 214 161 212 157 l 151 22 q 146 14 138 7 q 130 0 118 0 l 8 0 z"},")":{"x_min":0,"x_max":312,"ha":312,"o":"m 143 295 q 143 392 120 485 q 97 579 55 660 q 49 670 48 678 q 47 686 50 691 q 52 697 56 701 q 60 706 65 709 l 121 742 q 155 688 180 634 q 205 580 220 525 q 236 469 243 412 q 250 355 250 295 q 250 236 243 179 q 236 122 220 66 q 205 11 180 -43 q 155 -98 121 -151 l 65 -118 q 60 -115 56 -111 q 52 -106 50 -101 q 47 -95 48 -87 q 49 -80 55 -69 q 97 12 120 106 q 143 199 143 295 z"},"&":{"x_min":0,"x_max":705,"ha":705,"o":"m 327 690 q 371 690 405 677 q 439 665 464 643 q 489 622 503 594 q 517 566 519 537 l 440 521 q 430 518 421 523 q 413 527 408 539 q 403 551 396 561 q 390 572 380 580 q 370 587 357 592 q 344 597 327 597 q 307 597 291 590 q 274 583 263 572 q 252 561 247 546 q 241 531 241 515 q 241 502 244 490 q 247 477 253 464 q 260 451 271 438 q 282 424 298 409 l 487 220 q 503 250 513 283 q 522 316 526 351 q 527 362 533 369 q 540 376 551 376 l 629 376 q 628 312 610 255 q 591 197 558 149 l 708 0 l 585 0 q 566 0 555 5 q 543 9 530 23 l 482 70 q 435 33 377 13 q 319 -7 252 -7 q 211 -7 171 6 q 131 20 100 45 q 69 71 50 107 q 31 144 31 189 q 31 221 42 249 q 52 278 71 302 q 90 326 116 346 q 143 366 174 380 q 148 415 137 448 q 125 482 125 514 q 125 550 139 582 q 153 614 179 638 q 205 662 242 676 q 279 690 327 690 z m 274 91 q 316 91 351 103 q 386 115 415 137 l 231 317 q 192 293 175 263 q 157 233 157 199 q 157 174 167 154 q 176 134 192 120 q 208 106 229 99 q 250 91 274 91 z"},"_":{"x_min":0,"x_max":498,"ha":498,"o":"m 498 -60 l 498 -140 l 0 -140 l 0 -60 z"},"v":{"x_min":0,"x_max":473,"ha":473,"o":"m 293 0 l 180 0 l 5 485 l 108 485 q 122 485 131 478 q 140 472 143 462 l 214 215 q 229 170 238 125 q 243 147 249 169 q 255 191 263 215 l 336 462 q 340 472 349 479 q 357 485 370 485 l 468 485 z"},"O":{"x_min":0,"x_max":676,"ha":676,"o":"m 653 325 q 653 253 631 193 q 608 132 567 87 q 526 43 468 18 q 410 -7 339 -7 q 268 -7 210 18 q 152 43 110 87 q 69 132 46 193 q 23 253 23 325 q 23 396 46 456 q 69 517 110 561 q 152 605 210 631 q 268 656 339 656 q 410 656 468 631 q 526 605 567 561 q 608 517 631 456 q 653 396 653 325 z m 522 325 q 522 376 510 417 q 497 458 473 487 q 450 516 416 531 q 382 547 339 547 q 296 547 262 531 q 228 516 204 487 q 180 458 167 417 q 155 376 155 325 q 155 272 167 231 q 180 190 204 161 q 228 133 262 118 q 296 103 339 103 q 382 103 416 118 q 450 133 473 161 q 497 190 510 231 q 522 272 522 325 z"},"(":{"x_min":0,"x_max":312,"ha":312,"o":"m 168 295 q 168 199 192 106 q 215 12 257 -69 q 262 -80 263 -87 q 264 -95 262 -101 q 260 -106 255 -111 q 251 -115 246 -118 l 191 -151 q 156 -98 131 -43 q 106 11 91 66 q 75 122 68 179 q 61 236 61 295 q 61 355 68 412 q 75 469 91 525 q 106 580 131 634 q 156 688 191 742 l 246 709 q 251 706 255 701 q 260 697 262 691 q 264 686 263 678 q 262 670 257 660 q 215 579 192 485 q 168 392 168 295 z"},"C":{"x_min":0,"x_max":529,"ha":529,"o":"m 450 157 q 460 157 468 149 l 519 94 q 484 45 431 19 q 378 -7 305 -7 q 239 -7 187 18 q 134 42 97 87 q 60 131 40 192 q 21 252 21 325 q 21 397 42 458 q 63 519 102 563 q 140 607 194 631 q 248 656 312 656 q 377 656 428 633 q 478 609 512 571 l 469 511 q 464 506 459 501 q 453 497 443 497 q 433 497 423 505 q 414 513 400 522 q 386 531 365 539 q 344 547 311 547 q 275 547 246 532 q 217 517 196 489 q 175 460 163 419 q 152 377 152 325 q 152 271 165 230 q 177 188 199 160 q 221 131 250 116 q 279 102 313 102 q 333 102 349 104 q 365 106 379 112 q 393 117 405 126 q 417 135 430 148 q 435 152 440 155 q 445 157 450 157 z"},"W":{"x_min":0,"x_max":906,"ha":906,"o":"m 4 648 l 112 648 q 129 648 140 641 q 151 633 155 620 l 250 246 q 259 216 266 178 q 270 197 274 214 q 278 231 283 246 l 396 620 q 400 631 412 640 q 423 648 438 648 l 476 648 q 493 648 504 641 q 514 633 519 620 l 632 246 q 637 231 641 215 q 645 198 649 179 q 652 198 656 214 q 660 231 664 245 l 759 620 q 763 631 774 640 q 786 648 801 648 l 902 648 l 709 0 l 593 0 l 465 431 q 462 439 459 450 q 457 460 454 471 q 452 460 449 450 q 446 439 443 431 l 312 0 l 197 0 z"},"A":{"x_min":0,"x_max":606,"ha":606,"o":"m 605 0 l 507 0 q 490 0 479 8 q 469 16 464 28 l 423 156 l 185 156 l 144 29 q 140 18 129 9 q 118 0 102 0 l 2 0 l 238 648 l 369 648 z m 213 246 l 394 246 l 328 451 q 322 466 316 486 q 310 506 303 530 q 297 506 291 486 q 285 465 279 450 z"},"f":{"x_min":0,"x_max":316,"ha":316,"o":"m 76 0 l 76 394 l 42 400 q 27 403 19 410 q 10 417 10 431 l 10 481 l 76 481 l 76 515 q 76 557 88 590 q 101 623 124 646 q 146 670 179 682 q 212 695 253 695 q 270 695 284 693 q 298 690 313 686 l 310 624 q 309 610 298 606 q 288 602 274 602 q 256 602 241 598 q 227 593 217 583 q 207 572 201 555 q 196 537 196 511 l 196 481 l 309 481 l 309 394 l 200 394 l 200 0 z"},"Q":{"x_min":0,"x_max":686,"ha":686,"o":"m 658 325 q 658 242 629 175 q 599 108 546 63 l 712 -125 l 607 -125 q 584 -125 566 -120 q 548 -114 533 -97 l 443 7 q 396 -7 344 -7 q 273 -7 215 18 q 157 43 115 87 q 74 132 51 193 q 28 253 28 325 q 28 396 51 456 q 74 517 115 561 q 157 605 215 631 q 273 656 344 656 q 415 656 473 631 q 531 605 572 561 q 613 517 636 456 q 658 396 658 325 z m 527 325 q 527 376 515 417 q 502 458 478 487 q 455 516 421 531 q 387 547 344 547 q 301 547 267 531 q 232 516 209 487 q 185 458 172 417 q 160 376 160 325 q 160 272 172 231 q 185 190 209 161 q 232 133 267 118 q 301 103 344 103 q 387 103 421 118 q 455 133 478 161 q 502 190 515 231 q 527 272 527 325 z"},"w":{"x_min":0,"x_max":745,"ha":745,"o":"m 3 485 l 102 485 q 116 485 125 478 q 135 472 137 462 l 199 215 q 204 193 209 172 q 213 150 217 130 q 222 150 228 172 q 234 193 241 215 l 314 463 q 317 473 326 479 q 335 485 348 485 l 402 485 q 416 485 425 479 q 434 473 437 463 l 507 215 q 521 170 531 129 q 535 150 539 171 q 543 192 550 215 l 614 462 q 617 472 626 479 q 635 485 647 485 l 742 485 l 591 0 l 491 0 q 474 0 467 21 l 387 291 q 377 321 373 349 q 367 320 358 291 l 276 21 q 270 0 250 0 l 154 0 z"},"-":{"x_min":0,"x_max":306,"ha":306,"o":"m 30 337 l 276 337 l 276 233 l 30 233 z"},"E":{"x_min":0,"x_max":488,"ha":488,"o":"m 453 648 l 453 546 l 187 546 l 187 375 l 394 375 l 394 277 l 187 277 l 187 102 l 454 102 l 453 0 l 58 0 l 58 648 z"},"s":{"x_min":0,"x_max":399,"ha":399,"o":"m 342 387 q 337 379 331 376 q 326 373 317 373 q 309 373 299 377 q 290 382 278 387 q 267 393 252 398 q 237 402 218 402 q 189 402 173 389 q 157 375 157 353 q 157 338 166 328 q 175 318 191 310 q 206 303 225 296 q 245 290 265 283 q 286 275 305 265 q 324 255 340 241 q 355 226 364 205 q 374 184 374 155 q 374 120 361 90 q 349 60 325 39 q 302 17 267 5 q 232 -7 186 -7 q 163 -7 140 -3 q 117 1 96 10 q 75 18 56 28 q 38 39 25 52 l 54 99 q 59 107 66 112 q 74 117 85 117 q 96 117 106 111 q 115 105 126 98 q 138 91 153 85 q 169 79 192 79 q 210 79 222 83 q 235 88 242 95 q 250 103 254 113 q 257 123 257 133 q 257 154 241 166 q 225 178 201 187 q 176 196 148 205 q 120 214 96 230 q 71 247 55 273 q 39 299 39 343 q 39 373 50 400 q 62 427 84 448 q 106 468 139 480 q 172 493 216 493 q 240 493 262 488 q 285 484 304 476 q 324 468 341 457 q 357 445 370 432 z"},">":{"x_min":0,"x_max":498,"ha":498,"o":"m 83 96 l 83 185 q 83 195 87 203 q 92 211 104 217 l 265 300 q 287 311 315 317 q 287 324 266 335 l 104 418 q 92 424 87 433 q 83 441 83 451 l 83 539 l 458 342 l 458 293 z"},"l":{"x_min":0,"x_max":246,"ha":246,"o":"m 185 702 l 185 0 l 61 0 l 61 702 z"},"8":{"x_min":0,"x_max":507,"ha":507,"o":"m 253 -7 q 204 -7 162 7 q 121 21 92 47 q 62 73 46 110 q 30 147 30 193 q 30 251 56 293 q 83 335 141 356 q 96 376 73 415 q 51 453 51 506 q 51 545 66 579 q 81 613 107 637 q 134 662 172 676 q 209 690 253 690 q 298 690 335 676 q 373 662 399 637 q 426 613 441 579 q 456 545 456 506 q 456 453 434 415 q 411 376 365 356 q 424 335 450 293 q 477 251 477 193 q 477 147 461 110 q 445 73 415 47 q 386 21 344 7 q 303 -7 253 -7 z m 253 89 q 278 89 296 97 q 314 105 326 119 q 337 133 343 153 q 349 172 349 195 q 349 248 326 276 q 304 304 253 304 q 204 304 181 276 q 158 248 158 195 q 158 172 164 153 q 169 133 181 119 q 193 105 211 97 q 229 89 253 89 z m 253 401 q 277 401 293 410 q 309 419 319 433 q 328 447 332 466 q 335 484 335 504 q 335 522 331 539 q 326 556 316 569 q 306 582 291 589 q 275 597 253 597 q 231 597 216 589 q 201 582 191 569 q 181 556 176 539 q 171 522 171 504 q 171 484 175 466 q 179 447 188 433 q 198 419 213 410 q 229 401 253 401 z"},"\\":{"x_min":0,"x_max":430,"ha":430,"o":"m -14 702 l 39 702 q 62 702 78 690 q 95 679 103 658 l 432 -45 l 380 -45 q 360 -45 341 -34 q 322 -22 313 0 z"},"e":{"x_min":0,"x_max":503,"ha":503,"o":"m 263 493 q 309 493 348 478 q 386 463 414 435 q 442 407 458 366 q 473 325 473 272 q 473 258 472 249 q 470 240 467 234 q 464 229 458 227 q 453 225 444 225 l 154 225 q 157 189 167 164 q 177 138 193 121 q 209 104 231 96 q 253 88 280 88 q 307 88 326 95 q 346 102 361 109 q 376 117 388 123 q 399 130 411 130 q 424 130 433 119 l 469 73 q 449 49 424 34 q 400 19 374 10 q 348 0 321 -3 q 294 -7 269 -7 q 219 -7 175 9 q 132 26 100 59 q 67 92 49 140 q 31 189 31 253 q 31 302 47 346 q 63 390 93 422 q 123 455 166 474 q 209 493 263 493 z m 266 404 q 218 404 191 377 q 165 349 157 299 l 362 299 q 362 320 356 339 q 351 358 339 373 q 327 387 309 396 q 291 404 266 404 z"},"b":{"x_min":0,"x_max":537,"ha":537,"o":"m 61 0 l 61 702 l 185 702 l 185 428 q 213 457 248 475 q 282 493 326 493 q 367 493 400 476 q 434 459 457 428 q 480 397 493 354 q 506 310 506 255 q 506 196 491 147 q 477 99 450 65 q 423 30 385 11 q 348 -7 302 -7 q 280 -7 262 -3 q 244 1 229 10 q 214 18 201 29 q 189 41 177 55 l 172 23 q 169 10 162 5 q 155 0 143 0 z m 283 396 q 251 396 229 382 q 206 368 185 342 l 185 128 q 203 105 225 96 q 246 86 271 86 q 295 86 315 95 q 335 104 349 124 q 363 144 370 175 q 378 206 378 250 q 378 289 372 317 q 365 344 353 362 q 341 379 323 388 q 306 396 283 396 z"},"%":{"x_min":0,"x_max":729,"ha":729,"o":"m 332 518 q 332 479 319 448 q 307 417 285 395 q 264 373 236 361 q 208 349 178 349 q 145 349 117 361 q 89 373 68 395 q 48 417 36 448 q 25 479 25 518 q 25 557 36 589 q 48 621 68 643 q 89 666 117 677 q 145 689 178 689 q 211 689 240 677 q 268 666 289 643 q 309 621 321 589 q 332 557 332 518 z m 236 518 q 236 544 232 562 q 228 579 220 590 q 212 601 201 605 q 190 610 178 610 q 166 610 155 605 q 145 601 137 590 q 129 579 125 562 q 121 544 121 518 q 121 492 125 475 q 129 458 137 448 q 145 438 155 433 q 166 429 178 429 q 190 429 201 433 q 212 438 220 448 q 228 458 232 475 q 236 492 236 518 z m 704 161 q 704 123 691 91 q 679 60 657 38 q 636 16 608 4 q 581 -8 550 -8 q 517 -8 489 4 q 461 16 440 38 q 420 60 408 91 q 397 123 397 161 q 397 200 408 232 q 420 264 440 286 q 461 309 489 321 q 517 333 550 333 q 583 333 612 321 q 640 309 661 286 q 681 264 693 232 q 704 200 704 161 z m 608 161 q 608 187 604 204 q 600 222 592 232 q 583 243 573 248 q 562 252 550 252 q 538 252 527 248 q 517 243 510 232 q 502 222 498 204 q 493 187 493 161 q 493 135 498 118 q 502 101 510 91 q 517 81 527 76 q 538 72 550 72 q 562 72 573 76 q 583 81 592 91 q 600 101 604 118 q 608 135 608 161 z m 203 35 q 190 15 175 7 q 160 0 141 0 l 88 0 l 503 642 q 516 662 531 672 q 546 683 568 683 l 622 683 z"},"m":{"x_min":0,"x_max":813,"ha":813,"o":"m 62 0 l 62 485 l 139 485 q 150 485 158 479 q 167 474 169 463 l 177 429 q 190 442 204 454 q 218 466 234 474 q 250 483 269 488 q 287 493 309 493 q 355 493 385 468 q 416 443 430 403 q 442 427 459 444 q 477 461 498 472 q 519 482 542 488 q 565 493 588 493 q 629 493 661 480 q 693 468 715 444 q 737 420 748 386 q 759 352 759 309 l 759 0 l 635 0 l 635 309 q 635 396 557 396 q 540 396 524 390 q 509 385 498 374 q 486 363 480 346 q 473 330 473 309 l 473 0 l 349 0 l 349 309 q 349 355 330 376 q 310 396 273 396 q 248 396 227 385 q 205 374 187 353 l 187 0 z"},"#":{"x_min":0,"x_max":498,"ha":498,"o":"m 366 190 l 334 0 l 277 0 q 269 0 261 4 q 254 8 249 15 q 244 22 242 31 q 240 41 242 51 l 264 190 l 188 190 l 165 45 q 161 21 145 10 q 129 0 109 0 l 54 0 l 85 190 l 43 190 q 25 190 17 202 q 8 213 13 240 l 19 279 l 97 279 l 117 404 l 29 404 l 39 456 q 42 475 54 484 q 66 493 93 493 l 128 493 l 152 641 q 156 661 170 672 q 185 683 205 683 l 261 683 l 229 493 l 307 493 l 338 683 l 394 683 q 413 683 424 671 q 436 659 433 640 l 408 493 l 493 493 l 484 442 q 480 423 468 414 q 456 404 429 404 l 397 404 l 377 279 l 429 279 q 448 279 456 268 q 464 257 460 230 l 454 190 z m 199 279 l 275 279 l 296 404 l 219 404 z"},",":{"x_min":0,"x_max":258,"ha":258,"o":"m 58 75 q 58 88 63 101 q 68 113 77 122 q 87 130 100 135 q 113 141 129 141 q 148 141 162 134 q 176 127 185 116 q 194 104 198 90 q 203 75 203 58 q 203 35 196 10 q 189 -16 176 -41 q 162 -67 142 -91 q 122 -115 95 -135 l 73 -116 q 68 -111 66 -107 q 64 -103 64 -97 q 64 -93 67 -88 q 70 -83 74 -80 q 80 -74 87 -66 q 95 -58 102 -47 q 110 -37 116 -24 q 123 -12 126 2 q 111 2 98 8 q 85 14 76 23 q 67 33 62 46 q 58 59 58 75 z"},"n":{"x_min":0,"x_max":537,"ha":537,"o":"m 61 0 l 61 485 l 137 485 q 148 485 156 479 q 165 474 167 463 l 175 427 q 190 442 206 454 q 221 466 239 474 q 257 483 278 488 q 298 493 322 493 q 362 493 392 479 q 422 465 443 441 q 463 417 474 383 q 484 349 484 309 l 484 0 l 360 0 l 360 309 q 360 350 341 373 q 322 396 284 396 q 256 396 231 384 q 207 372 185 350 l 185 0 z"},"h":{"x_min":0,"x_max":537,"ha":537,"o":"m 61 0 l 61 702 l 185 702 l 185 436 q 213 461 245 477 q 278 493 323 493 q 362 493 393 479 q 423 465 443 441 q 464 417 474 383 q 485 349 485 309 l 485 0 l 361 0 l 361 309 q 361 350 342 373 q 323 396 285 396 q 256 396 232 384 q 207 372 185 350 l 185 0 z"},"z":{"x_min":0,"x_max":397,"ha":397,"o":"m 372 434 q 372 420 367 408 q 363 396 356 388 l 168 95 l 367 95 l 367 0 l 27 0 l 27 51 q 27 60 31 72 q 35 84 43 94 l 230 390 l 39 390 l 39 485 l 372 485 z"},"B":{"x_min":0,"x_max":561,"ha":561,"o":"m 58 0 l 58 648 l 278 648 q 341 648 385 636 q 430 624 458 602 q 486 579 499 547 q 512 515 512 476 q 512 453 505 432 q 499 411 486 393 q 473 375 452 360 q 431 345 402 335 q 528 305 528 192 q 528 150 513 115 q 498 80 469 54 q 439 29 397 14 q 354 0 299 0 z m 187 282 l 187 100 l 296 100 q 327 100 348 107 q 368 115 380 128 q 392 142 397 159 q 402 176 402 195 q 402 215 396 231 q 391 247 378 258 q 366 270 345 276 q 325 282 296 282 z m 187 370 l 271 370 q 325 370 354 391 q 384 412 384 459 q 384 509 358 530 q 333 550 278 550 l 187 550 z"},"K":{"x_min":0,"x_max":547,"ha":547,"o":"m 175 379 l 196 379 q 225 379 237 399 l 365 622 q 375 637 388 643 q 401 648 420 648 l 532 648 l 365 381 q 347 355 326 345 q 341 339 353 329 q 364 319 375 303 l 545 0 l 431 0 q 410 0 399 7 q 389 13 381 24 l 252 260 q 245 272 235 277 q 225 283 207 283 l 175 283 l 175 0 l 47 0 l 47 648 l 175 648 z"},"R":{"x_min":0,"x_max":563,"ha":563,"o":"m 187 250 l 187 0 l 58 0 l 58 648 l 253 648 q 318 648 364 635 q 411 621 440 596 q 470 571 483 536 q 497 501 497 460 q 497 428 488 400 q 479 371 463 347 q 446 324 421 305 q 397 287 365 276 q 377 269 388 260 q 399 250 408 236 l 553 0 l 438 0 q 407 0 390 26 l 272 228 q 265 240 256 245 q 247 250 230 250 z m 187 341 l 252 341 q 283 341 306 349 q 329 357 343 372 q 358 387 365 407 q 372 427 372 451 q 372 499 343 524 q 313 550 253 550 l 187 550 z"},"T":{"x_min":0,"x_max":495,"ha":495,"o":"m 486 648 l 486 544 l 312 544 l 312 0 l 184 0 l 184 544 l 9 544 l 9 648 z"},"P":{"x_min":0,"x_max":532,"ha":532,"o":"m 185 225 l 185 0 l 56 0 l 56 648 l 265 648 q 328 648 373 633 q 418 617 448 590 q 478 562 492 524 q 506 486 506 440 q 506 393 491 353 q 477 313 447 285 q 417 257 371 241 q 326 225 265 225 z m 185 325 l 265 325 q 323 325 351 356 q 378 387 378 440 q 378 491 350 520 q 322 550 265 550 l 185 550 z"},"|":{"x_min":0,"x_max":475,"ha":475,"o":"m 189 730 l 286 730 l 286 -162 l 189 -162 z"},"t":{"x_min":0,"x_max":347,"ha":347,"o":"m 207 -7 q 144 -7 110 29 q 77 65 77 129 l 77 394 l 33 394 q 23 394 16 400 q 9 407 9 419 l 9 469 l 83 483 l 109 611 q 113 631 136 631 l 201 631 l 201 481 l 320 481 l 320 394 l 201 394 l 201 137 q 201 116 210 104 q 219 92 236 92 q 246 92 252 94 q 258 96 262 99 q 267 102 270 104 q 274 106 278 106 q 284 106 287 104 q 291 101 294 95 l 332 35 q 307 14 274 3 q 242 -7 207 -7 z"},"M":{"x_min":0,"x_max":874,"ha":874,"o":"m 409 277 q 426 246 438 213 q 445 230 452 246 q 458 263 467 278 l 667 628 q 670 636 675 640 q 679 644 684 646 q 688 647 695 648 q 701 648 709 648 l 806 648 l 806 0 l 693 0 l 693 406 q 693 419 694 434 q 695 450 696 466 l 492 104 q 477 75 447 75 l 429 75 q 399 75 384 104 l 177 468 q 179 451 180 435 q 181 419 181 406 l 181 0 l 68 0 l 68 648 l 165 648 q 173 648 179 648 q 186 647 191 646 q 196 644 200 640 q 204 636 208 628 l 409 277 z"},"g":{"x_min":0,"x_max":474,"ha":474,"o":"m 225 493 q 254 493 281 487 q 307 480 329 469 l 463 469 l 463 422 q 463 412 457 405 q 451 399 437 396 l 399 388 q 408 364 408 336 q 408 300 394 271 q 380 242 355 222 q 331 201 297 190 q 264 179 225 179 q 213 179 202 180 q 191 181 180 183 q 162 171 162 156 q 162 142 174 135 q 187 129 208 126 q 228 124 254 123 q 281 122 308 120 q 336 117 362 111 q 389 105 409 92 q 430 79 442 57 q 455 35 455 0 q 455 -32 440 -62 q 425 -93 396 -117 q 367 -141 325 -155 q 283 -169 229 -169 q 177 -169 138 -159 q 99 -148 73 -130 q 48 -113 35 -90 q 23 -66 23 -42 q 23 -9 42 14 q 60 37 93 50 q 76 60 65 77 q 55 94 55 121 q 55 131 58 143 q 62 154 70 166 q 78 177 89 188 q 100 198 116 206 q 81 226 60 259 q 40 292 40 336 q 40 373 54 402 q 68 431 93 451 q 118 471 152 482 q 186 493 225 493 z m 341 -21 q 341 -7 333 1 q 326 9 313 14 q 301 19 284 21 q 267 23 247 24 q 228 25 207 26 q 187 27 167 30 q 150 20 140 6 q 130 -8 130 -26 q 130 -38 135 -48 q 141 -59 152 -66 q 164 -73 184 -77 q 203 -82 232 -82 q 262 -82 283 -77 q 304 -72 317 -64 q 330 -56 335 -45 q 341 -34 341 -21 z m 225 259 q 263 259 281 279 q 298 300 298 333 q 298 368 281 387 q 263 407 225 407 q 188 407 170 387 q 152 368 152 333 q 152 300 170 280 q 188 259 225 259 z"},"j":{"x_min":0,"x_max":255,"ha":255,"o":""},"i":{"x_min":0,"x_max":246,"ha":246,"o":""},"y":{"x_min":0,"x_max":474,"ha":474,"o":"m 228 -131 q 223 -144 214 -151 q 206 -157 188 -157 l 95 -157 l 182 38 l 1 485 l 110 485 q 125 485 133 478 q 141 471 145 462 l 226 223 q 231 209 235 196 q 239 183 243 170 q 247 184 251 197 q 255 210 261 224 l 336 462 q 340 472 349 479 q 358 485 370 485 l 469 485 z"},"@":{"x_min":0,"x_max":898,"ha":898,"o":"m 611 86 q 579 86 554 101 q 529 115 519 148 q 491 115 459 101 q 428 87 393 87 q 363 87 340 97 q 318 108 303 126 q 288 145 281 170 q 273 195 273 224 q 273 251 280 279 q 287 306 301 332 q 314 357 335 380 q 356 403 384 419 q 411 436 446 446 q 481 456 523 456 q 562 456 588 450 q 614 444 639 434 l 593 257 q 586 229 586 210 q 586 192 591 181 q 597 171 607 167 q 617 163 629 163 q 648 163 666 175 q 683 188 695 209 q 708 231 715 262 q 723 292 723 328 q 723 389 704 435 q 685 481 651 512 q 618 543 571 559 q 524 574 467 574 q 406 574 353 551 q 301 528 263 488 q 225 448 203 393 q 181 339 181 276 q 181 199 205 141 q 229 83 270 44 q 312 5 368 -14 q 425 -34 490 -34 q 527 -34 558 -30 q 590 -26 616 -19 q 642 -13 663 -4 q 685 4 701 14 q 713 21 723 18 q 733 15 738 3 l 754 -41 q 707 -73 641 -93 q 575 -114 490 -114 q 404 -114 331 -87 q 258 -60 205 -9 q 151 42 121 114 q 91 186 91 276 q 91 327 104 374 q 118 421 142 463 q 166 505 199 540 q 233 575 275 600 q 317 625 366 639 q 414 653 467 653 q 512 653 555 643 q 598 633 636 614 q 674 594 707 566 q 739 538 762 502 q 785 466 798 422 q 811 378 811 328 q 811 277 796 233 q 781 189 754 157 q 728 124 691 105 q 654 86 611 86 z m 417 166 q 429 166 441 170 q 453 173 463 182 q 474 191 483 206 q 492 221 498 244 l 531 376 q 524 377 517 378 q 510 378 503 378 q 475 378 451 366 q 426 354 408 333 q 390 312 380 285 q 369 257 369 228 q 369 198 382 182 q 394 166 417 166 z"},".":{"x_min":0,"x_max":267,"ha":267,"o":"m 59 67 q 59 82 65 96 q 70 109 80 119 q 90 129 104 135 q 118 141 133 141 q 149 141 163 135 q 176 129 186 119 q 196 109 202 96 q 208 82 208 67 q 208 51 202 38 q 196 24 186 14 q 176 4 163 -1 q 149 -7 133 -7 q 118 -7 104 -1 q 90 4 80 14 q 70 24 65 38 q 59 51 59 67 z"},"p":{"x_min":0,"x_max":537,"ha":537,"o":"m 60 -157 l 60 485 l 136 485 q 148 485 156 479 q 164 474 167 463 l 177 420 q 191 437 208 450 q 224 464 242 474 q 261 483 283 489 q 305 494 330 494 q 369 494 401 478 q 433 461 457 429 q 480 398 493 352 q 506 305 506 246 q 506 192 491 146 q 477 99 450 65 q 423 31 385 12 q 347 -7 300 -7 q 261 -7 233 5 q 206 17 184 37 l 184 -157 z m 288 396 q 253 396 229 382 q 205 368 184 342 l 184 127 q 203 104 224 95 q 246 86 271 86 q 295 86 315 96 q 334 105 349 125 q 363 145 370 175 q 378 205 378 246 q 378 287 372 316 q 365 344 354 362 q 342 380 325 388 q 309 396 288 396 z"},"X":{"x_min":0,"x_max":551,"ha":551,"o":"m 188 333 l 10 648 l 139 648 q 152 648 157 645 q 163 642 168 634 l 285 409 l 293 423 l 396 632 q 401 640 407 644 q 413 648 421 648 l 543 648 l 363 339 l 547 0 l 420 0 q 407 0 399 7 q 392 13 386 21 l 269 255 q 268 253 266 251 q 265 249 264 246 l 154 22 q 149 14 142 7 q 135 0 124 0 l 3 0 z"},"*":{"x_min":0,"x_max":498,"ha":498,"o":"m 219 391 l 219 476 q 219 486 220 495 q 221 504 224 512 q 219 505 212 500 q 205 495 196 490 l 123 448 l 94 497 l 167 540 q 175 545 184 548 q 193 552 202 553 q 183 556 167 567 l 94 611 l 123 660 l 196 617 q 205 612 212 606 q 219 601 225 594 q 221 603 220 611 q 219 620 219 630 l 219 715 l 278 715 l 278 630 q 278 621 277 612 q 275 603 272 594 q 278 601 285 606 q 292 612 301 617 l 374 659 l 403 610 l 330 567 q 321 562 313 558 q 304 555 295 553 q 304 552 313 548 q 322 545 330 540 l 403 496 l 374 447 l 301 490 q 283 500 271 513 q 278 497 278 477 l 278 391 z"},"Y":{"x_min":0,"x_max":520,"ha":520,"o":"m 323 250 l 323 0 l 196 0 l 196 251 l -7 648 l 106 648 q 122 648 132 641 q 142 633 148 620 l 228 411 q 238 391 246 374 q 254 357 261 340 q 266 357 274 374 q 282 391 292 410 l 371 620 q 376 630 387 639 q 397 648 413 648 l 527 648 z"},"c":{"x_min":0,"x_max":418,"ha":418,"o":"m 372 379 q 366 372 361 368 q 355 364 346 364 q 336 364 329 369 q 321 375 311 381 q 301 388 287 393 q 274 398 253 398 q 228 398 209 388 q 190 377 178 357 q 166 337 160 308 q 154 279 154 244 q 154 168 180 127 q 206 86 251 86 q 275 86 289 93 q 303 100 313 108 q 323 116 331 123 q 339 130 350 130 q 364 130 372 119 l 408 73 q 389 49 367 34 q 345 19 322 9 q 298 0 275 -4 q 251 -7 228 -7 q 187 -7 151 10 q 114 26 87 59 q 59 91 43 137 q 27 184 27 244 q 27 297 41 342 q 55 388 83 421 q 110 455 151 474 q 192 493 246 493 q 296 493 335 475 q 374 457 404 423 z"},"!":{"x_min":0,"x_max":326,"ha":326,"o":"m 222 683 l 222 413 q 222 370 218 329 q 213 287 206 241 l 122 241 q 115 287 110 329 q 106 370 106 413 l 106 683 z m 88 67 q 88 82 94 96 q 100 109 110 119 q 120 129 133 135 q 147 141 163 141 q 178 141 192 135 q 206 129 216 119 q 226 109 231 96 q 237 82 237 67 q 237 51 231 38 q 226 24 216 14 q 206 4 192 -1 q 178 -7 163 -7 q 147 -7 133 -1 q 120 4 110 14 q 100 24 94 38 q 88 51 88 67 z"},"/":{"x_min":0,"x_max":430,"ha":430,"o":"m 110 0 q 101 -22 82 -34 q 63 -45 43 -45 l -9 -45 l 323 658 q 332 679 348 690 q 365 702 387 702 l 439 702 z"},"[":{"x_min":0,"x_max":325,"ha":325,"o":"m 72 -147 l 72 730 l 270 730 l 270 682 q 270 669 261 660 q 251 650 237 650 l 176 650 l 176 -67 l 237 -67 q 251 -67 261 -77 q 270 -86 270 -99 l 270 -147 z"},"6":{"x_min":0,"x_max":507,"ha":507,"o":"m 223 413 q 239 420 258 424 q 276 428 298 428 q 333 428 366 416 q 400 403 426 377 q 453 352 469 313 q 485 275 485 224 q 485 176 468 134 q 452 92 422 61 q 392 29 350 11 q 308 -7 256 -7 q 204 -7 163 10 q 122 28 93 60 q 63 91 48 136 q 33 180 33 234 q 33 283 51 333 q 69 384 106 438 l 252 654 q 262 666 279 674 q 297 683 319 683 l 429 683 l 241 437 z m 152 215 q 152 188 158 165 q 165 143 177 127 q 190 111 209 102 q 229 93 254 93 q 277 93 296 103 q 316 112 330 128 q 345 144 353 166 q 361 188 361 214 q 361 243 353 265 q 345 288 331 303 q 317 319 298 327 q 278 335 254 335 q 231 335 213 326 q 194 317 180 302 q 167 286 159 263 q 152 241 152 215 z"},"r":{"x_min":0,"x_max":355,"ha":355,"o":"m 54 0 l 54 485 l 126 485 q 146 485 153 478 q 161 471 163 454 l 169 405 q 191 446 221 470 q 250 494 289 494 q 320 494 341 479 l 332 386 q 331 377 326 374 q 321 370 312 370 q 305 370 292 372 q 278 375 266 375 q 249 375 236 370 q 222 365 212 355 q 201 346 193 332 q 185 318 178 301 l 178 0 z"},"2":{"x_min":0,"x_max":507,"ha":507,"o":""},"{":{"x_min":0,"x_max":344,"ha":344,"o":"m 97 191 q 97 220 84 238 q 71 255 42 255 l 42 327 q 71 327 84 345 q 97 363 97 391 q 97 413 94 435 q 91 457 87 479 q 83 500 81 523 q 78 545 78 568 q 78 604 88 634 q 99 664 121 685 q 143 707 176 718 q 210 730 256 730 l 281 730 l 281 675 q 281 668 278 664 q 275 659 271 656 q 267 653 262 652 q 258 650 254 650 l 251 650 q 219 650 202 630 q 186 610 186 575 q 186 549 188 526 q 191 502 194 480 q 197 458 199 437 q 202 415 202 393 q 202 375 197 359 q 192 343 183 330 q 173 316 160 306 q 146 296 128 292 q 146 286 160 276 q 173 267 183 253 q 192 240 197 224 q 202 208 202 190 q 202 168 199 146 q 197 125 194 103 q 191 81 188 57 q 186 33 186 7 q 186 -28 202 -48 q 219 -67 251 -67 l 254 -67 q 258 -67 262 -69 q 267 -70 271 -73 q 275 -76 278 -81 q 281 -86 281 -93 l 281 -147 l 256 -147 q 210 -147 176 -136 q 143 -124 121 -103 q 99 -81 88 -51 q 78 -21 78 16 q 78 38 81 60 q 83 83 87 104 q 91 126 94 148 q 97 169 97 191 z"},"9":{"x_min":0,"x_max":507,"ha":507,"o":""}," ":{"x_min":0,"x_max":226,"ha":226,"o":""},"I":{"x_min":0,"x_max":267,"ha":267,"o":"m 198 0 l 69 0 l 69 648 l 198 648 z"},"H":{"x_min":0,"x_max":631,"ha":631,"o":"m 576 0 l 447 0 l 447 281 l 184 281 l 184 0 l 55 0 l 55 648 l 184 648 l 184 372 l 447 372 l 447 648 l 576 648 z"},"4":{"x_min":0,"x_max":507,"ha":507,"o":""},"~":{"x_min":0,"x_max":498,"ha":498,"o":"m 325 309 q 350 309 364 326 q 378 342 378 372 l 479 372 q 479 334 469 304 q 459 274 440 253 q 421 231 394 220 q 367 208 333 208 q 308 208 285 215 q 262 221 242 228 q 222 236 205 242 q 188 248 173 248 q 147 248 134 232 q 120 215 120 186 l 20 186 q 20 223 29 253 q 39 284 58 305 q 77 326 104 338 q 131 349 166 349 q 190 349 213 343 q 236 336 256 329 q 276 322 293 315 q 311 309 325 309 z"},"D":{"x_min":0,"x_max":630,"ha":630,"o":"m 607 325 q 607 253 585 194 q 562 134 521 91 q 480 48 422 24 q 364 0 293 0 l 57 0 l 57 648 l 293 648 q 364 648 422 625 q 480 601 521 558 q 562 515 585 455 q 607 396 607 325 z m 477 325 q 477 376 464 417 q 452 458 428 487 q 404 516 370 531 q 336 547 293 547 l 186 547 l 186 102 l 293 102 q 336 102 370 117 q 404 132 428 161 q 452 190 464 231 q 477 272 477 325 z"},"^":{"x_min":0,"x_max":498,"ha":498,"o":"m 479 319 l 389 319 q 377 319 370 325 q 362 331 358 339 l 272 515 q 265 530 259 544 q 253 558 249 572 q 244 558 238 544 q 232 530 226 515 l 146 340 q 143 332 135 325 q 127 319 114 319 l 19 319 l 207 683 l 287 683 z"},"0":{"x_min":0,"x_max":507,"ha":507,"o":"m 486 325 q 486 240 469 177 q 451 115 419 74 q 388 33 345 13 q 302 -7 252 -7 q 203 -7 160 13 q 118 33 87 74 q 56 115 38 177 q 21 240 21 325 q 21 410 38 472 q 56 534 87 575 q 118 616 160 636 q 203 656 252 656 q 302 656 345 636 q 388 616 419 575 q 451 534 469 472 q 486 410 486 325 z m 365 325 q 365 394 355 439 q 346 484 330 511 q 314 538 294 548 q 274 559 252 559 q 231 559 211 548 q 191 538 176 511 q 161 484 151 439 q 142 394 142 325 q 142 255 151 210 q 161 165 176 138 q 191 111 211 101 q 231 90 252 90 q 274 90 294 101 q 314 111 330 138 q 346 165 355 210 q 365 255 365 325 z"},"F":{"x_min":0,"x_max":459,"ha":459,"o":"m 435 648 l 435 546 l 182 546 l 182 363 l 394 363 l 394 261 l 182 261 l 182 0 l 53 0 l 53 648 z"},"`":{"x_min":0,"x_max":300,"ha":300,"o":"m 154 690 q 174 690 184 684 q 193 677 201 665 l 266 550 l 196 550 q 182 550 173 553 q 165 557 155 567 l 38 690 z"},"k":{"x_min":0,"x_max":480,"ha":480,"o":"m 176 702 l 176 302 l 195 302 q 207 302 213 306 q 219 309 226 318 l 314 464 q 322 474 331 479 q 341 485 355 485 l 468 485 l 351 307 q 343 296 334 288 q 325 279 314 272 q 324 265 331 256 q 339 246 346 235 l 474 0 l 362 0 q 334 0 321 21 l 232 202 q 227 213 220 217 q 213 220 201 220 l 176 220 l 176 0 l 52 0 l 52 702 z"},"u":{"x_min":0,"x_max":537,"ha":537,"o":"m 176 485 l 176 177 q 176 135 195 112 q 214 89 252 89 q 280 89 305 101 q 330 114 352 135 l 352 485 l 476 485 l 476 0 l 400 0 q 388 0 380 6 q 372 11 370 22 l 361 58 q 332 29 297 11 q 262 -7 214 -7 q 175 -7 145 6 q 114 20 94 44 q 73 69 63 103 q 52 136 52 177 l 52 485 z"},"]":{"x_min":0,"x_max":325,"ha":325,"o":"m 55 -99 q 55 -86 64 -77 q 73 -67 87 -67 l 149 -67 l 149 650 l 87 650 q 73 650 64 660 q 55 669 55 682 l 55 730 l 252 730 l 252 -147 l 55 -147 z"},"U":{"x_min":0,"x_max":653,"ha":653,"o":"m 327 104 q 361 104 387 115 q 414 126 432 146 q 451 167 460 196 q 470 226 470 262 l 470 648 l 598 648 l 598 262 q 598 203 579 154 q 561 104 525 69 q 490 33 440 13 q 390 -7 327 -7 q 264 -7 213 13 q 163 33 127 69 q 92 104 73 154 q 55 203 55 262 l 55 648 l 183 648 l 183 262 q 183 226 193 196 q 203 167 221 146 q 239 126 266 115 q 292 104 327 104 z"},"o":{"x_min":0,"x_max":538,"ha":538,"o":"m 270 493 q 323 493 367 475 q 411 458 442 426 q 473 393 490 347 q 507 301 507 244 q 507 186 490 139 q 473 93 442 60 q 411 28 367 10 q 323 -7 270 -7 q 216 -7 172 10 q 127 28 96 60 q 64 93 47 139 q 30 186 30 244 q 30 301 47 347 q 64 393 96 426 q 127 458 172 475 q 216 493 270 493 z m 270 87 q 326 87 353 127 q 379 166 379 243 q 379 319 353 359 q 326 398 270 398 q 212 398 185 359 q 158 319 158 243 q 158 166 185 127 q 212 87 270 87 z"},"N":{"x_min":0,"x_max":659,"ha":659,"o":"m 127 648 q 135 648 141 648 q 147 647 152 645 q 156 643 160 639 q 165 635 170 628 l 489 208 q 486 240 486 269 l 486 648 l 599 648 l 599 0 l 533 0 q 518 0 508 5 q 498 10 488 22 l 170 440 q 173 410 173 384 l 173 0 l 60 0 l 60 648 l 127 648 z"},"+":{"x_min":0,"x_max":498,"ha":498,"o":"m 299 554 l 299 362 l 479 362 l 479 271 l 299 271 l 299 78 l 198 78 l 198 271 l 18 271 l 18 362 l 198 362 l 198 554 z"},"G":{"x_min":0,"x_max":637,"ha":637,"o":"m 594 62 q 545 26 490 10 q 435 -7 373 -7 q 294 -7 230 18 q 167 42 121 87 q 76 131 51 192 q 26 252 26 325 q 26 397 50 458 q 73 519 117 563 q 161 607 222 631 q 284 656 360 656 q 400 656 434 649 q 468 643 498 632 q 527 621 551 605 q 575 589 595 570 l 558 513 q 550 499 536 496 q 522 493 506 502 q 491 512 476 520 q 460 528 443 534 q 426 540 405 543 q 384 547 356 547 q 311 547 274 531 q 237 515 211 486 q 186 458 172 416 q 158 375 158 325 q 158 270 173 227 q 188 184 216 155 q 243 125 282 110 q 321 94 369 94 q 401 94 427 101 q 453 107 478 119 l 478 232 l 403 232 q 391 232 384 239 q 377 246 377 256 l 377 328 l 594 328 l 594 62 z"},"q":{"x_min":0,"x_max":537,"ha":537,"o":"m 477 485 l 477 -157 l 353 -157 l 353 58 q 324 28 289 10 q 254 -7 207 -7 q 168 -7 136 9 q 104 26 80 58 q 57 89 44 135 q 31 182 31 241 q 31 295 45 342 q 60 388 87 422 q 114 456 152 475 q 189 494 236 494 q 258 494 277 490 q 295 486 310 479 q 326 472 339 461 q 352 451 363 438 l 370 463 q 373 474 381 479 q 389 485 400 485 z m 250 91 q 267 91 281 94 q 295 98 308 104 q 320 111 331 121 q 342 131 353 145 l 353 359 q 334 381 312 391 q 291 400 266 400 q 241 400 222 391 q 202 381 188 362 q 174 342 166 312 q 159 282 159 241 q 159 200 165 171 q 171 143 183 125 q 195 107 212 99 q 229 91 250 91 z"},"d":{"x_min":0,"x_max":537,"ha":537,"o":"m 399 0 q 388 0 380 6 q 372 11 370 22 l 359 66 q 330 33 293 13 q 256 -7 206 -7 q 167 -7 135 9 q 103 26 80 58 q 57 89 44 135 q 31 182 31 241 q 31 295 45 342 q 60 388 87 422 q 114 456 152 475 q 189 494 236 494 q 275 494 302 482 q 330 470 352 449 l 352 702 l 476 702 l 476 0 z m 250 91 q 267 91 281 94 q 295 98 308 105 q 320 112 331 122 q 342 132 352 145 l 352 359 q 333 382 312 391 q 290 400 265 400 q 241 400 221 391 q 202 381 188 362 q 174 342 166 312 q 159 282 159 241 q 159 200 165 171 q 171 143 183 125 q 195 107 212 99 q 229 91 250 91 z"},"1":{"x_min":0,"x_max":507,"ha":507,"o":"m 115 88 l 241 88 l 241 451 q 241 474 242 498 l 158 425 q 149 418 141 417 q 133 416 125 417 q 118 418 113 422 q 107 426 104 430 l 67 480 l 262 649 l 358 649 l 358 88 l 469 88 l 469 0 l 115 0 z"},"5":{"x_min":0,"x_max":507,"ha":507,"o":""}}}
